<?xml version="1.0" encoding="UTF-8"?>
<svg version="1.1" xmlns="http://www.w3.org/2000/svg" width="500" height="500">
<path d="M0 0 C165 0 330 0 500 0 C500 165 500 330 500 500 C335 500 170 500 0 500 C0 335 0 170 0 0 Z " fill="#E4E4E4" transform="translate(0,0)"/>
<path d="M0 0 C5.6925 -0.12375 5.6925 -0.12375 11.5 -0.25 C12.68013672 -0.28641602 13.86027344 -0.32283203 15.07617188 -0.36035156 C21.88435849 -0.43160537 26.22377372 0.32912722 32 4 C35.00300612 7.37838189 35.51668852 10.48265577 35.37109375 14.99609375 C34.75256351 18.33615703 33.10279442 20.37150697 31 23 C31.825 23.61875 32.65 24.2375 33.5 24.875 C36.0307141 27.41294471 36.46427193 29.3854096 36.625 32.9375 C36.43924226 36.3998178 35.97922761 38.71941351 33.875 41.5 C29.28575005 45.49065213 24.91858687 46.25689265 18.9453125 46.1953125 C17.94516113 46.19031738 16.94500977 46.18532227 15.91455078 46.18017578 C14.66399902 46.16196777 13.41344727 46.14375977 12.125 46.125 C8.12375 46.08375 4.1225 46.0425 0 46 C0 30.82 0 15.64 0 0 Z " fill="#FEFEFE" transform="translate(320,139)"/>
<path d="M0 0 C3.3 0 6.6 0 10 0 C12.80070078 5.43660937 15.25189082 10.88305033 17.453125 16.5859375 C17.91075226 17.76042953 17.91075226 17.76042953 18.37762451 18.95864868 C19.01469894 20.59653909 19.64987261 22.23517 20.28320312 23.87451172 C21.25624791 26.39115937 22.237092 28.90467006 23.21875 31.41796875 C23.83900528 33.01544507 24.45881331 34.61309513 25.078125 36.2109375 C25.51865204 37.33899307 25.51865204 37.33899307 25.96807861 38.48983765 C28 43.76969544 28 43.76969544 28 46 C24.37 46 20.74 46 17 46 C16.01 43.69 15.02 41.38 14 39 C8.06 38.67 2.12 38.34 -4 38 C-4.66 40.31 -5.32 42.62 -6 45 C-7 46 -7 46 -9.50390625 46.09765625 C-10.51324219 46.08605469 -11.52257812 46.07445312 -12.5625 46.0625 C-13.57441406 46.05347656 -14.58632812 46.04445312 -15.62890625 46.03515625 C-16.41136719 46.02355469 -17.19382813 46.01195312 -18 46 C-12.36385837 30.52533045 -6.14909238 15.27576564 0 0 Z " fill="#FEFEFE" transform="translate(168,139)"/>
<path d="M0 0 C3.74147205 3.48957096 7.01901486 7.23986581 9 12 C9 12.99 9 13.98 9 15 C5.29256567 15.2832505 1.69735243 15.45463741 -2 15 C-4 12.625 -4 12.625 -5 10 C-9.45577347 7.02948436 -13.77442606 7.37262509 -19 8 C-22.53214485 10.01836849 -24.80160052 12.07796533 -26 16 C-26.4477318 21.55187433 -26.29052206 25.28358505 -23 30 C-18.29756531 33.28076839 -14.54100846 33.53622663 -9 33 C-6.65738392 31.62073227 -6.65738392 31.62073227 -5 30 C-4.34 30 -3.68 30 -3 30 C-2.67 28.68 -2.34 27.36 -2 26 C1.63 26 5.26 26 9 26 C7.62356101 32.88219497 4.82009635 37.07481874 -1 41 C-7.13504417 44.50573953 -13.01616267 44.8358316 -20 44 C-26.7629903 41.93105889 -31.64154746 37.56137366 -35.3125 31.5625 C-38.29458099 25.14798294 -38.14450661 17.28004837 -36.33984375 10.53125 C-33.69203459 4.57081379 -29.0431927 0.55698231 -23.3125 -2.375 C-15.67955362 -3.81517856 -6.76725139 -4.40962832 0 0 Z " fill="#FEFEFE" transform="translate(124,142)"/>
<path d="M0 0 C5.506875 -0.12375 5.506875 -0.12375 11.125 -0.25 C12.2711377 -0.28641602 13.41727539 -0.32283203 14.59814453 -0.36035156 C20.70198216 -0.42670926 24.46130922 -0.25595266 29 4 C32.09829457 8.3788036 31.63939304 13.86963204 31 19 C29.125 22.0625 29.125 22.0625 27 24 C26.34 24.66 25.68 25.32 25 26 C25.5053125 26.85464844 26.010625 27.70929688 26.53125 28.58984375 C27.1809375 29.69457031 27.830625 30.79929687 28.5 31.9375 C29.47453125 33.59072266 29.47453125 33.59072266 30.46875 35.27734375 C32 38 32 38 32 39 C28.37 39 24.74 39 21 39 C20.63648438 38.21753906 20.27296875 37.43507813 19.8984375 36.62890625 C19.39570313 35.61699219 18.89296875 34.60507812 18.375 33.5625 C17.88773438 32.55316406 17.40046875 31.54382813 16.8984375 30.50390625 C15.17195658 27.69262157 15.17195658 27.69262157 11.7890625 27.15234375 C10.86867187 27.10207031 9.94828125 27.05179687 9 27 C9 30.96 9 34.92 9 39 C6.03 39 3.06 39 0 39 C0 26.13 0 13.26 0 0 Z " fill="#FEFEFE" transform="translate(134,243)"/>
<path d="M0 0 C3.526875 -0.061875 7.05375 -0.12375 10.6875 -0.1875 C12.342052 -0.22846802 12.342052 -0.22846802 14.0300293 -0.27026367 C20.78082056 -0.32768831 24.21221905 0.51360078 29.3125 5.0625 C31.77391081 9.34717808 31.788304 13.16970585 31 18 C29.26460898 21.23939656 27.57678866 23.42321134 25 26 C28.465 32.435 28.465 32.435 32 39 C24.8066078 39.87724295 24.8066078 39.87724295 21 39 C17.93994942 35.80690375 15 31.56514213 15 27 C13.02 27 11.04 27 9 27 C9 30.96 9 34.92 9 39 C6.03 39 3.06 39 0 39 C0 26.13 0 13.26 0 0 Z " fill="#FEFEFE" transform="translate(386,243)"/>
<path d="M0 0 C9.9 0 19.8 0 30 0 C30 2.97 30 5.94 30 9 C23.4 9 16.8 9 10 9 C10 12.3 10 15.6 10 19 C15.94 19 21.88 19 28 19 C28 21.64 28 24.28 28 27 C22.06 27 16.12 27 10 27 C10 30.3 10 33.6 10 37 C16.6 37 23.2 37 30 37 C30 39.97 30 42.94 30 46 C20.1 46 10.2 46 0 46 C0 30.82 0 15.64 0 0 Z " fill="#FEFEFE" transform="translate(267,139)"/>
<path d="M0 0 C3.3 0 6.6 0 10 0 C11.65748983 4.10628995 13.31138922 8.21400314 14.9621582 12.32299805 C15.52272731 13.7169369 16.08422923 15.11050103 16.64672852 16.50366211 C19.64725507 23.93696656 22.58561498 31.35021168 25 39 C21.7 39 18.4 39 15 39 C14.01 35.535 14.01 35.535 13 32 C7.72 32 2.44 32 -3 32 C-3.66 34.31 -4.32 36.62 -5 39 C-8.3 39 -11.6 39 -15 39 C-10.52715799 25.77442011 -5.37319679 12.88373185 0 0 Z " fill="#FEFEFE" transform="translate(196,243)"/>
<path d="M0 0 C2.97 0 5.94 0 9 0 C9 4.95 9 9.9 9 15 C13.74815851 14.73998787 13.74815851 14.73998787 18 13 C20.30227429 9.19507583 21.6121269 5.20699034 23 1 C24 0 24 0 26.06640625 -0.09765625 C27.30197266 -0.08025391 27.30197266 -0.08025391 28.5625 -0.0625 C29.38878906 -0.05347656 30.21507813 -0.04445312 31.06640625 -0.03515625 C31.70449219 -0.02355469 32.34257813 -0.01195312 33 0 C32.18049563 5.06602698 30.20688624 9.38895693 28.15625 14.0625 C27.7746875 15.031875 27.393125 16.00125 27 17 C26.53787109 18.16789062 26.53787109 18.16789062 26.06640625 19.359375 C25.95868277 23.64296736 28.25275921 26.67204454 30.4375 30.25 C35 37.9513373 35 37.9513373 35 39 C31.37 39 27.74 39 24 39 C23.50371094 37.92878906 23.00742188 36.85757813 22.49609375 35.75390625 C21.81126267 34.35610035 21.12498859 32.95900077 20.4375 31.5625 C19.95313477 30.50192383 19.95313477 30.50192383 19.45898438 29.41992188 C18.95141602 28.40961914 18.95141602 28.40961914 18.43359375 27.37890625 C18.13509521 26.7557251 17.83659668 26.13254395 17.52905273 25.49047852 C15.50839716 23.22770917 15.50839716 23.22770917 9 23 C9 28.28 9 33.56 9 39 C6.03 39 3.06 39 0 39 C0 26.13 0 13.26 0 0 Z " fill="#FEFEFE" transform="translate(81,243)"/>
<path d="M0 0 C2.97 0 5.94 0 9 0 C9.01981934 0.80219971 9.03963867 1.60439941 9.06005859 2.4309082 C9.15519495 6.05844177 9.2649208 9.68539045 9.375 13.3125 C9.4059375 14.57513672 9.436875 15.83777344 9.46875 17.13867188 C9.50742188 18.34716797 9.54609375 19.55566406 9.5859375 20.80078125 C9.6173584 21.91622314 9.6487793 23.03166504 9.68115234 24.1809082 C9.805249 27.20368786 9.805249 27.20368786 12 30 C16.09391503 30.63553538 16.09391503 30.63553538 20 30 C22.71058651 26.31255437 23.39546309 23.57693932 23.51171875 19.04296875 C23.54716797 17.93115234 23.58261719 16.81933594 23.61914062 15.67382812 C23.64169922 14.52333984 23.66425781 13.37285156 23.6875 12.1875 C23.72166016 11.01767578 23.75582031 9.84785156 23.79101562 8.64257812 C23.87332316 5.76181446 23.94253178 2.88134862 24 0 C26.97 0 29.94 0 33 0 C33.08777806 4.16653186 33.14065272 8.33282276 33.1875 12.5 C33.21263672 13.67304688 33.23777344 14.84609375 33.26367188 16.0546875 C33.32030901 22.77562709 33.00786371 27.9413031 30 34 C25.92960338 37.96602747 21.96658771 40.28275161 16.25 40.4375 C10.90484491 40.31906968 6.82354132 38.79705027 3 35 C0.33189334 30.50911116 -0.36196877 27.26831396 -0.29296875 22.0703125 C-0.28330078 20.78125 -0.27363281 19.4921875 -0.26367188 18.1640625 C-0.23861188 16.81770214 -0.21321712 15.47134797 -0.1875 14.125 C-0.17243504 12.75522295 -0.15874982 11.38542998 -0.14648438 10.015625 C-0.11121379 6.67667642 -0.06191896 3.33854325 0 0 Z " fill="#FDFDFD" transform="translate(238,243)"/>
<path d="M0 0 C8.58 0 17.16 0 26 0 C26 2.31 26 4.62 26 7 C20.39 7 14.78 7 9 7 C9 9.64 9 12.28 9 15 C13.95 15 18.9 15 24 15 C24 17.64 24 20.28 24 23 C19.05 23 14.1 23 9 23 C9 25.64 9 28.28 9 31 C14.94 31 20.88 31 27 31 C27 33.64 27 36.28 27 39 C18.09 39 9.18 39 0 39 C0 26.13 0 13.26 0 0 Z " fill="#FEFEFE" transform="translate(340,243)"/>
<path d="M0 0 C3.3 0 6.6 0 10 0 C10 11.88 10 23.76 10 36 C16.6 36 23.2 36 30 36 C30 39.3 30 42.6 30 46 C20.1 46 10.2 46 0 46 C0 30.82 0 15.64 0 0 Z " fill="#FEFEFE" transform="translate(216,139)"/>
<path d="M0 0 C11.22 0 22.44 0 34 0 C34 2.64 34 5.28 34 8 C30.04 8 26.08 8 22 8 C22 18.23 22 28.46 22 39 C19.03 39 16.06 39 13 39 C13 28.77 13 18.54 13 8 C8.71 8 4.42 8 0 8 C0 5.36 0 2.72 0 0 Z " fill="#FEFEFE" transform="translate(288,243)"/>
<path d="M0 0 C2.10353495 -0.0810206 4.20795952 -0.13919907 6.3125 -0.1875 C7.48425781 -0.22230469 8.65601563 -0.25710937 9.86328125 -0.29296875 C13 0 13 0 14.890625 1.35546875 C16.49693349 3.7366514 16.49083466 5.19523051 16 8 C13.65047745 10.36073745 12.32960257 10.96797902 8.984375 11.29296875 C7.91703125 11.25816406 6.8496875 11.22335938 5.75 11.1875 C4.13351562 11.14689453 4.13351562 11.14689453 2.484375 11.10546875 C1.66453125 11.07066406 0.8446875 11.03585938 0 11 C0 7.37 0 3.74 0 0 Z " fill="#E5E5E5" transform="translate(330,166)"/>
<path d="M0 0 C8.17817372 -0.36080178 8.17817372 -0.36080178 11.5625 1.125 C13 3 13 3 13.4375 6 C13 9 13 9 11.796875 10.67578125 C9.37084019 12.46366343 7.79122294 12.30355414 4.8125 12.1875 C3.224375 12.125625 1.63625 12.06375 0 12 C0 8.04 0 4.08 0 0 Z " fill="#E4E4E4" transform="translate(143,250)"/>
<path d="M0 0 C9.48251748 -0.31608392 9.48251748 -0.31608392 12 2 C12.9375 5.4375 12.9375 5.4375 13 9 C11.828125 10.7109375 11.828125 10.7109375 10 12 C7.51953125 12.29296875 7.51953125 12.29296875 4.8125 12.1875 C3.224375 12.125625 1.63625 12.06375 0 12 C0 8.04 0 4.08 0 0 Z " fill="#E4E4E4" transform="translate(395,250)"/>
<path d="M0 0 C1.95803507 -0.05389087 3.91648909 -0.09274217 5.875 -0.125 C7.51082031 -0.15980469 7.51082031 -0.15980469 9.1796875 -0.1953125 C12 0 12 0 14 2 C14.25 5 14.25 5 14 8 C12 10 12 10 9.1796875 10.1953125 C8.08914063 10.17210937 6.99859375 10.14890625 5.875 10.125 C4.77929688 10.10695312 3.68359375 10.08890625 2.5546875 10.0703125 C1.71164062 10.04710937 0.86859375 10.02390625 0 10 C0 6.7 0 3.4 0 0 Z " fill="#E4E4E4" transform="translate(330,148)"/>
<path d="M0 0 C1.7866789 2.68001835 2.9322137 5.03128744 4.125 8 C4.65480469 9.299375 4.65480469 9.299375 5.1953125 10.625 C6 13 6 13 6 16 C2.04 16 -1.92 16 -6 16 C-5.19110952 13.51960151 -4.37808099 11.04069788 -3.5625 8.5625 C-3.33240234 7.85544922 -3.10230469 7.14839844 -2.86523438 6.41992188 C-1.11328125 1.11328125 -1.11328125 1.11328125 0 0 Z " fill="#E4E4E4" transform="translate(173,153)"/>
<path d="M0 0 C0.66 0 1.32 0 2 0 C2.67057887 1.7902061 3.3363469 3.58221489 4 5.375 C4.556875 6.87160156 4.556875 6.87160156 5.125 8.3984375 C6 11 6 11 6 13 C2.7 13 -0.6 13 -4 13 C-3.52140759 11.39566191 -3.04210442 9.79153584 -2.5625 8.1875 C-2.29566406 7.29417969 -2.02882812 6.40085937 -1.75390625 5.48046875 C-1.19612127 3.64526945 -0.60655425 1.81966274 0 0 Z " fill="#E5E5E5" transform="translate(200,255)"/>
</svg>
